<svg version="1.0" xmlns="http://www.w3.org/2000/svg"
 width="730.000000pt" height="937.000000pt" viewBox="0 0 730.000000 937.000000"
 preserveAspectRatio="xMidYMid meet">

<g transform="translate(0.000000,937.000000) scale(0.100000,-0.100000)"
fill="#000000" stroke="none">
<path d="M1377 9359 c-395 -38 -777 -232 -1031 -524 -224 -258 -336 -552 -336
-884 0 -279 72 -516 228 -749 97 -146 280 -323 438 -424 135 -87 366 -180 524
-212 335 -67 603 -40 899 92 159 71 441 247 441 275 0 7 -491 828 -504 844 -1
2 -26 -7 -55 -18 -88 -33 -241 -52 -371 -45 -301 15 -471 124 -430 274 37 138
227 210 525 199 102 -4 166 -12 235 -30 52 -14 96 -24 96 -23 1 0 109 188 239
416 131 228 246 429 257 447 l19 31 -83 55 c-331 220 -700 313 -1091 276z"/>
<path d="M6155 9359 c-210 -22 -395 -77 -585 -175 -425 -218 -707 -599 -777
-1049 -19 -127 -12 -343 16 -465 129 -562 592 -990 1203 -1112 151 -30 420
-32 548 -4 201 44 413 139 623 279 114 76 119 81 115 111 -2 18 -104 197 -246
432 l-243 402 -74 -24 c-245 -78 -606 -42 -727 71 -45 42 -61 82 -56 142 11
132 156 208 418 220 153 7 324 -14 421 -52 14 -5 65 79 263 424 159 279 246
441 246 458 0 23 -12 36 -67 72 -317 211 -708 309 -1078 270z"/>
<path d="M4213 9319 c-185 -86 -490 -120 -753 -84 -146 20 -218 40 -357 102
-10 4 -13 -276 -13 -1382 0 -1106 3 -1386 13 -1382 172 73 298 104 465 115
240 16 477 -14 633 -82 l79 -34 0 1389 c0 764 -1 1389 -2 1388 -2 0 -31 -14
-65 -30z"/>
<path d="M6730 6084 c-41 -23 -199 -71 -290 -89 -255 -49 -607 -20 -799 66
-35 16 -65 29 -67 29 -2 0 -4 -623 -4 -1385 l0 -1385 38 16 c78 34 211 73 305
89 116 19 373 22 487 5 133 -20 275 -62 328 -96 13 -9 26 -14 28 -11 2 2 3
627 2 1390 l-3 1385 -25 -14z"/>
<path d="M790 4704 c0 -1316 1 -1386 18 -1379 207 87 356 117 593 116 223 0
405 -33 531 -97 26 -13 50 -24 53 -24 3 0 5 623 5 1385 0 762 -3 1385 -6 1385
-3 0 -48 -15 -98 -34 -255 -96 -601 -112 -880 -41 -50 12 -116 34 -145 49 -30
14 -58 26 -63 26 -4 0 -8 -624 -8 -1386z"/>
<path d="M1425 2879 c-372 -24 -738 -186 -1000 -444 -120 -117 -201 -229 -275
-376 -100 -201 -140 -369 -140 -594 0 -157 18 -272 66 -415 72 -216 187 -393
366 -566 213 -205 471 -339 781 -406 85 -18 135 -22 302 -22 189 -1 206 1 310
28 129 33 218 67 354 135 107 54 339 205 347 226 3 7 -107 199 -245 426 -189
313 -254 414 -268 413 -10 -1 -54 -12 -98 -24 -109 -31 -391 -35 -500 -6 -86
23 -178 70 -210 108 -75 88 -45 206 69 273 137 80 453 96 677 34 39 -11 73
-18 74 -17 2 2 116 200 255 441 138 241 249 445 246 453 -3 8 -43 38 -88 68
-307 199 -651 288 -1023 265z"/>
<path d="M6195 2879 c-271 -18 -546 -111 -780 -266 -125 -83 -327 -282 -404
-398 -100 -152 -170 -319 -208 -495 -25 -119 -25 -391 0 -508 40 -180 117
-361 220 -511 72 -105 262 -293 374 -369 177 -120 391 -210 601 -253 145 -30
382 -36 513 -14 213 35 450 135 669 283 95 63 116 82 118 105 3 21 -53 121
-243 435 l-246 408 -67 -22 c-229 -76 -576 -49 -719 56 -22 17 -49 46 -58 66
-24 52 -17 132 17 176 33 43 126 93 209 113 149 35 376 29 539 -14 66 -18 76
-19 86 -5 43 56 484 846 484 866 0 32 -14 43 -134 117 -285 174 -619 253 -971
230z"/>
<path d="M3090 1474 c0 -1316 1 -1386 18 -1379 86 38 256 87 343 99 137 20
352 20 488 0 105 -15 266 -62 308 -90 12 -8 25 -14 28 -14 3 0 5 624 5 1386 0
1316 -1 1386 -17 1379 -87 -38 -257 -87 -344 -99 -123 -18 -326 -21 -449 -6
-109 14 -256 52 -319 85 -28 14 -53 25 -56 25 -3 0 -5 -624 -5 -1386z"/>
</g>
</svg>
